<?xml version="1.0" encoding="UTF-8" standalone="no"?>
<svg
   xmlns:dc="http://purl.org/dc/elements/1.1/"
   xmlns:cc="http://creativecommons.org/ns#"
   xmlns:rdf="http://www.w3.org/1999/02/22-rdf-syntax-ns#"
   xmlns:svg="http://www.w3.org/2000/svg"
   xmlns="http://www.w3.org/2000/svg"
   xmlns:sodipodi="http://sodipodi.sourceforge.net/DTD/sodipodi-0.dtd"
   xmlns:inkscape="http://www.inkscape.org/namespaces/inkscape"
   width="150"
   height="65"
   viewBox="0 0 39.687499 17.197917"
   version="1.1"
   id="svg243"
   inkscape:version="1.0.1 (c497b03c, 2020-09-10)"
   sodipodi:docname="logo.svg">
  <defs
     id="defs237" />
  <sodipodi:namedview
     id="base"
     pagecolor="#ffffff"
     bordercolor="#666666"
     borderopacity="1.0"
     inkscape:pageopacity="0.0"
     inkscape:pageshadow="2"
     inkscape:zoom="1.5850629"
     inkscape:cx="-10.864847"
     inkscape:cy="-22.455426"
     inkscape:document-units="mm"
     inkscape:current-layer="layer1"
     inkscape:document-rotation="0"
     showgrid="false"
     units="px"
     inkscape:window-width="1664"
     inkscape:window-height="943"
     inkscape:window-x="0"
     inkscape:window-y="23"
     inkscape:window-maximized="0" />
  <metadata
     id="metadata240">
    <rdf:RDF>
      <cc:Work
         rdf:about="">
        <dc:format>image/svg+xml</dc:format>
        <dc:type
           rdf:resource="http://purl.org/dc/dcmitype/StillImage" />
        <dc:title></dc:title>
      </cc:Work>
    </rdf:RDF>
  </metadata>
  <g
     inkscape:label="Layer 1"
     inkscape:groupmode="layer"
     id="layer1">
    <text
       xml:space="preserve"
       style="font-style:normal;font-variant:normal;font-weight:normal;font-stretch:normal;font-size:7.60226px;line-height:1.25;font-family:Futura;-inkscape-font-specification:'Futura, Normal';font-variant-ligatures:normal;font-variant-caps:normal;font-variant-numeric:normal;font-variant-east-asian:normal;fill:#666666;fill-opacity:1;stroke:none;stroke-width:0.190056"
       x="15.697279"
       y="6.8822832"
       id="text12"><tspan
         sodipodi:role="line"
         id="tspan803"
         x="15.697279"
         y="6.8822832"> SaaS</tspan><tspan
         sodipodi:role="line"
         id="tspan805"
         x="15.697279"
         y="16.385107">Admin</tspan><tspan
         sodipodi:role="line"
         id="tspan807"
         x="15.697279"
         y="25.887934"></tspan></text>
    <g
       id="g1532"
       transform="matrix(0.02981218,0,0,0.02981218,0.53818438,1.205805)">
      <polygon
         style="fill:#cdd4d5"
         points="366.997,57.596 433.366,27.428 457.5,51.563 427.332,117.931 376.047,169.216 315.712,108.881 "
         id="polygon1414" />
      <g
         id="g1420">
	
		<rect
   x="248.868"
   y="105.928"
   transform="matrix(-0.7071,-0.7071,0.7071,-0.7071,299.1308,561.8752)"
   style="fill:#9baaab"
   width="34.131001"
   height="226.11501"
   id="rect1416" />

	<polygon
   style="fill:#9baaab"
   points="457.5,51.563 445.104,39.166 345.55,138.72 376.047,169.216 427.332,117.931 "
   id="polygon1418" />

</g>
      <rect
         x="263.03"
         y="111.805"
         transform="matrix(0.7071,0.7071,-0.7071,0.7071,238.6089,-126.3273)"
         style="fill:#687f82"
         width="17.530001"
         height="226.11501"
         id="rect1422" />
      <rect
         x="53.597"
         y="309.73401"
         transform="matrix(-0.7071,-0.7071,0.7071,-0.7071,-79.5995,718.7527)"
         style="fill:#ff8c29"
         width="110.924"
         height="132.256"
         id="rect1424" />
      <g
         id="g1430">
	<polygon
   style="fill:#ffd1a9"
   points="74.37,476.928 8,410.559 23.084,383.408 101.52,461.844 "
   id="polygon1426" />

	<polygon
   style="fill:#ffd1a9"
   points="158.84,271.787 213.141,326.089 195.041,368.324 116.605,289.888 "
   id="polygon1428" />

</g>
      <g
         id="g1438">
	<path
   style="fill:#f0353d"
   d="m 62.303,430.625 c -2.047,0 -4.095,-0.782 -5.656,-2.343 -3.124,-3.124 -3.124,-8.189 0,-11.313 l 93.52,-93.52 c 3.124,-3.124 8.189,-3.124 11.312,0 3.124,3.124 3.124,8.189 0,11.312 l -93.52,93.52 c -1.562,1.563 -3.61,2.344 -5.656,2.344 z"
   id="path1432" />

	<path
   style="fill:#f0353d"
   d="m 86.436,448.726 c -2.048,0 -4.095,-0.782 -5.656,-2.343 -3.124,-3.124 -3.124,-8.189 0,-11.313 l 90.503,-90.503 c 3.124,-3.124 8.189,-3.124 11.312,0 3.124,3.124 3.124,8.189 0,11.313 l -90.503,90.503 c -1.561,1.562 -3.608,2.343 -5.656,2.343 z"
   id="path1434" />

	<path
   style="fill:#f0353d"
   d="m 44.203,406.491 c -2.047,0 -4.095,-0.781 -5.656,-2.343 -3.124,-3.124 -3.124,-8.189 0,-11.312 l 90.502,-90.503 c 3.124,-3.124 8.189,-3.124 11.313,0 3.124,3.124 3.124,8.189 0,11.312 l -90.503,90.503 c -1.562,1.561 -3.61,2.343 -5.656,2.343 z"
   id="path1436" />

</g>
      <polygon
         style="fill:#9baaab"
         points="335.062,363.096 365.23,332.928 273.218,240.917 181.206,148.905 151.039,179.073 243.05,271.084 "
         id="polygon1440" />
      <polygon
         style="fill:#687f82"
         points="335.062,363.096 350.661,347.497 166.638,163.474 151.039,179.073 243.05,271.084 "
         id="polygon1442" />
      <g
         id="g1448">
	<polygon
   style="fill:#cdd4d5"
   points="175.173,173.039 202.324,145.888 208.357,79.519 138.971,10.133 108.804,40.301 166.123,97.62 132.938,130.804 99.754,163.989 42.435,106.67 12.267,136.838 81.653,206.224 148.021,200.19 "
   id="polygon1444" />

	<polygon
   style="fill:#cdd4d5"
   points="341.096,338.962 368.247,311.811 434.616,305.777 504.002,375.163 473.834,405.331 416.514,348.012 383.331,381.197 350.146,414.381 407.464,471.699 377.297,501.868 307.911,432.482 313.945,366.113 "
   id="polygon1446" />

</g>
      <g
         id="g1454">
	<polygon
   style="fill:#9baaab"
   points="133.454,130.289 132.938,130.804 99.754,163.989 42.435,106.67 12.267,136.838 81.653,206.224 148.021,200.19 175.173,173.039 175.689,172.524 "
   id="polygon1450" />

	<polygon
   style="fill:#9baaab"
   points="350.146,414.381 383.331,381.197 383.846,380.681 341.611,338.446 341.096,338.962 313.945,366.113 307.911,432.482 377.297,501.868 407.464,471.699 "
   id="polygon1452" />

</g>
      <path
         d="m 509.658,369.507 -69.386,-69.386 c -1.679,-1.679 -4.017,-2.525 -6.38,-2.31 l -66.37,6.034 c -1.863,0.17 -3.608,0.987 -4.932,2.31 l -6.411,6.41 -74.185,-74.185 75.952,-75.952 12.444,12.445 c 1.561,1.561 3.609,2.343 5.656,2.343 2.047,0 4.095,-0.781 5.656,-2.343 l 51.285,-51.285 c 0.678,-0.678 1.229,-1.473 1.625,-2.346 l 30.167,-66.37 c 1.38,-3.036 0.733,-6.609 -1.625,-8.967 L 439.02,21.771 c -2.358,-2.358 -5.93,-3.007 -8.967,-1.625 l -66.37,30.169 c -0.874,0.397 -1.668,0.947 -2.347,1.625 l -51.281,51.286 c -3.124,3.124 -3.124,8.189 0,11.312 l 12.445,12.444 -75.952,75.952 -44.978,-44.978 6.41,-6.41 c 1.324,-1.324 2.141,-3.069 2.31,-4.932 l 6.034,-66.37 c 0.215,-2.365 -0.631,-4.703 -2.31,-6.38 L 144.628,4.477 c -3.124,-3.124 -8.189,-3.124 -11.313,0 l -30.166,30.167 c -3.124,3.124 -3.124,8.189 0,11.312 l 51.662,51.662 -55.056,55.056 -51.662,-51.661 c -3.124,-3.124 -8.189,-3.124 -11.312,0 l -30.17,30.169 c -3.124,3.124 -3.124,8.189 0,11.312 l 69.386,69.386 c 1.507,1.507 3.544,2.343 5.656,2.343 0.241,0 0.483,-0.011 0.725,-0.033 l 66.37,-6.034 c 1.863,-0.17 3.608,-0.987 4.932,-2.31 l 6.41,-6.41 44.978,44.978 -31.144,31.144 -9.428,-9.428 c -2.312,-2.311 -5.8,-2.984 -8.808,-1.696 l -42.089,18.038 c -0.005,0.002 -0.011,0.004 -0.016,0.006 l -0.13,0.055 c -0.062,0.027 -0.119,0.061 -0.18,0.089 -0.164,0.075 -0.326,0.151 -0.486,0.238 -0.1,0.054 -0.195,0.114 -0.291,0.172 -0.125,0.075 -0.25,0.149 -0.372,0.231 -0.127,0.085 -0.246,0.177 -0.367,0.27 -0.085,0.065 -0.172,0.127 -0.255,0.196 -0.145,0.121 -0.283,0.249 -0.418,0.378 -0.045,0.043 -0.093,0.079 -0.137,0.124 l -0.091,0.091 c -0.009,0.009 -0.017,0.017 -0.026,0.026 l -93.268,93.268 c -0.002,0.001 -0.003,0.003 -0.005,0.005 l -0.129,0.129 c -0.049,0.049 -0.091,0.103 -0.139,0.154 -0.118,0.125 -0.237,0.251 -0.348,0.384 -0.083,0.099 -0.159,0.204 -0.237,0.306 -0.078,0.103 -0.157,0.205 -0.229,0.313 -0.098,0.144 -0.186,0.291 -0.274,0.439 -0.035,0.06 -0.076,0.115 -0.11,0.176 l -0.09,0.161 c -0.001,0.002 -0.002,0.003 -0.003,0.005 L 1.007,406.674 c -1.734,3.122 -1.189,7.016 1.336,9.541 l 66.37,66.369 c 1.539,1.539 3.587,2.343 5.659,2.343 1.327,0 2.663,-0.33 3.882,-1.007 l 27.15,-15.084 c 0.066,-0.036 0.125,-0.08 0.19,-0.118 0.142,-0.084 0.285,-0.17 0.422,-0.263 0.111,-0.076 0.215,-0.157 0.321,-0.237 0.1,-0.076 0.202,-0.15 0.299,-0.231 0.134,-0.111 0.26,-0.229 0.385,-0.348 0.05,-0.048 0.105,-0.09 0.154,-0.139 l 0.131,-0.131 c 0.001,-0.001 0.002,-0.002 0.003,-0.003 l 93.385,-93.385 c 0.103,-0.103 0.194,-0.213 0.29,-0.321 0.065,-0.073 0.133,-0.142 0.196,-0.217 0.02,-0.023 0.044,-0.046 0.063,-0.07 0.199,-0.244 0.377,-0.5 0.543,-0.76 0.035,-0.057 0.067,-0.115 0.101,-0.172 0.174,-0.289 0.329,-0.585 0.463,-0.888 0.012,-0.027 0.028,-0.049 0.039,-0.076 l 0.051,-0.121 c 0.004,-0.01 0.009,-0.02 0.013,-0.03 l 18.036,-42.084 c 1.288,-3.007 0.616,-6.494 -1.696,-8.808 l -9.428,-9.428 31.144,-31.144 74.185,74.185 -6.41,6.41 c -1.324,1.324 -2.141,3.069 -2.31,4.932 l -6.034,66.37 c -0.215,2.365 0.631,4.703 2.31,6.38 l 69.386,69.386 c 1.561,1.561 3.609,2.343 5.656,2.343 2.047,0 4.095,-0.781 5.656,-2.343 l 30.167,-30.167 c 3.124,-3.124 3.124,-8.189 0,-11.312 l -51.663,-51.662 55.056,-55.056 51.663,51.662 c 3.124,3.124 8.189,3.124 11.312,0 l 30.167,-30.167 c 3.132,-3.128 3.132,-8.193 0.008,-11.316 z m -183.647,-26.774 -79.84,-79.841 v 0 0 l -24.135,-24.135 -50.635,-50.634 18.855,-18.855 50.634,50.635 24.134,24.134 h 10e-4 l 79.841,79.841 z m -140.775,-55.862 31.144,-31.144 12.821,12.822 -31.144,31.144 z m 161.397,-135.755 -75.952,75.952 -12.821,-12.821 75.952,-75.952 z m 24.995,-86.837 60.002,-27.274 16.294,16.294 -27.274,60.002 -44.603,44.603 -12.444,-12.444 -24.134,-24.134 -12.444,-12.444 z m -227.215,128.207 -59.754,5.432 -61.08,-61.08 18.855,-18.855 51.662,51.662 c 3.124,3.124 8.189,3.124 11.312,0 l 66.37,-66.37 c 3.124,-3.124 3.124,-8.189 0,-11.312 l -51.662,-51.662 18.855,-18.855 61.08,61.08 -5.432,59.754 -10.02,10.02 -30.169,30.169 z m 5.738,142.262 c 0.005,0.005 0.01,0.012 0.015,0.016 0.005,0.005 0.011,0.01 0.016,0.014 l 21.101,21.101 12.444,12.444 -82.208,82.207 -33.561,-33.561 -33.561,-33.561 82.208,-82.207 12.444,12.444 z M 75.76,467.004 17.924,409.168 24.927,396.562 56.646,428.281 88.365,460 Z m 116.583,-112.691 -9.745,-9.745 -21.064,-21.063 c -0.017,-0.018 -0.033,-0.038 -0.05,-0.055 -0.018,-0.017 -0.037,-0.033 -0.055,-0.05 l -21.066,-21.066 -9.747,-9.747 26.397,-11.313 11.255,11.254 24.132,24.132 11.254,11.255 z m 281.491,39.706 -51.663,-51.662 c -3.124,-3.124 -8.189,-3.124 -11.312,0 l -66.37,66.37 c -3.124,3.124 -3.124,8.189 0,11.312 l 51.663,51.663 -18.855,18.855 -61.08,-61.08 5.432,-59.754 10.02,-10.02 30.169,-30.169 c 0.002,-0.002 0.003,-0.003 0.005,-0.005 l 10.014,-10.013 59.754,-5.432 61.08,61.08 z"
         id="path1456" />
      <g
         id="g1458">
</g>
      <g
         id="g1460">
</g>
      <g
         id="g1462">
</g>
      <g
         id="g1464">
</g>
      <g
         id="g1466">
</g>
      <g
         id="g1468">
</g>
      <g
         id="g1470">
</g>
      <g
         id="g1472">
</g>
      <g
         id="g1474">
</g>
      <g
         id="g1476">
</g>
      <g
         id="g1478">
</g>
      <g
         id="g1480">
</g>
      <g
         id="g1482">
</g>
      <g
         id="g1484">
</g>
      <g
         id="g1486">
</g>
    </g>
  </g>
</svg>
