<?xml version="1.0" encoding="UTF-8" standalone="no"?>
<svg
   xmlns:dc="http://purl.org/dc/elements/1.1/"
   xmlns:cc="http://creativecommons.org/ns#"
   xmlns:rdf="http://www.w3.org/1999/02/22-rdf-syntax-ns#"
   xmlns:svg="http://www.w3.org/2000/svg"
   xmlns="http://www.w3.org/2000/svg"
   xmlns:sodipodi="http://sodipodi.sourceforge.net/DTD/sodipodi-0.dtd"
   xmlns:inkscape="http://www.inkscape.org/namespaces/inkscape"
   width="160mm"
   height="65mm"
   viewBox="0 0 160 65"
   version="1.1"
   id="svg8"
   inkscape:version="1.0.1 (c497b03c, 2020-09-10)"
   sodipodi:docname="logo.svg">
  <defs
     id="defs2">
    <rect
       x="-63.779949"
       y="-13.822286"
       width="10.863281"
       height="53.131809"
       id="rect186" />
  </defs>
  <sodipodi:namedview
     id="base"
     pagecolor="#ffffff"
     bordercolor="#666666"
     borderopacity="1.0"
     inkscape:pageopacity="0.0"
     inkscape:pageshadow="2"
     inkscape:zoom="0.35"
     inkscape:cx="-137.86279"
     inkscape:cy="560"
     inkscape:document-units="mm"
     inkscape:current-layer="layer1"
     inkscape:document-rotation="0"
     showgrid="false"
     inkscape:window-width="1252"
     inkscape:window-height="943"
     inkscape:window-x="0"
     inkscape:window-y="23"
     inkscape:window-maximized="0" />
  <metadata
     id="metadata5">
    <rdf:RDF>
      <cc:Work
         rdf:about="">
        <dc:format>image/svg+xml</dc:format>
        <dc:type
           rdf:resource="http://purl.org/dc/dcmitype/StillImage" />
        <dc:title></dc:title>
      </cc:Work>
    </rdf:RDF>
  </metadata>
  <g
     inkscape:label="Layer 1"
     inkscape:groupmode="layer"
     id="layer1">
    <text
       xml:space="preserve"
       id="text184"
       style="font-style:normal;font-weight:normal;font-size:10.58329999999999949px;line-height:1.25;font-family:sans-serif;white-space:pre;shape-inside:url(#rect186);fill:#000000;fill-opacity:1;stroke:none;" />
    <text
       xml:space="preserve"
       style="font-style:normal;font-variant:normal;font-weight:bold;font-stretch:normal;font-size:20.0327px;line-height:1.25;font-family:Futura;-inkscape-font-specification:'Futura, Bold';font-variant-ligatures:normal;font-variant-caps:normal;font-variant-numeric:normal;font-variant-east-asian:normal;text-align:start;text-anchor:start;fill:#666666;fill-opacity:1;stroke:none;stroke-width:0.500819"
       x="46.37405"
       y="29.245928"
       id="text1676"><tspan
         sodipodi:role="line"
         id="tspan1674"
         x="46.37405"
         y="29.245928"
         style="font-style:normal;font-variant:normal;font-weight:bold;font-stretch:normal;font-size:20.0327px;font-family:Futura;-inkscape-font-specification:'Futura, Bold';font-variant-ligatures:normal;font-variant-caps:normal;font-variant-numeric:normal;font-variant-east-asian:normal;text-align:start;text-anchor:start;fill:#666666;stroke-width:0.500819">SaaS</tspan><tspan
         sodipodi:role="line"
         x="46.37405"
         y="54.286804"
         style="font-style:normal;font-variant:normal;font-weight:bold;font-stretch:normal;font-size:20.0327px;font-family:Futura;-inkscape-font-specification:'Futura, Bold';font-variant-ligatures:normal;font-variant-caps:normal;font-variant-numeric:normal;font-variant-east-asian:normal;text-align:start;text-anchor:start;fill:#666666;stroke-width:0.500819"
         id="tspan1678">Commerce</tspan></text>
    <g
       id="g2350"
       transform="matrix(0.08208961,0,0,0.08208961,3.5082246,16.028533)">
      <g
         id="g2286">
	<g
   id="g2284">
		<polygon
   style="fill:none"
   points="150.845,250.17 137.05,166.207 91.76,166.207 108.035,250.17 "
   id="polygon2268" />

		<path
   style="fill:none"
   d="m 132.414,367.077 c 0,13.669 11.121,24.789 24.791,24.789 13.668,0 24.787,-11.12 24.787,-24.789 0,-13.669 -11.119,-24.789 -24.787,-24.789 -13.67,10e-4 -24.791,11.12 -24.791,24.789 z"
   id="path2270" />

		<path
   style="fill:none"
   d="m 305.695,367.077 c 0,13.669 11.123,24.789 24.793,24.789 13.668,0 24.789,-11.12 24.789,-24.789 0,-13.669 -11.121,-24.789 -24.789,-24.789 -13.67,10e-4 -24.793,11.12 -24.793,24.789 z"
   id="path2272" />

		<polygon
   style="fill:none"
   points="230.158,166.207 161.371,166.207 175.165,250.17 230.158,250.17 "
   id="polygon2274" />

		<polygon
   style="fill:none"
   points="392.298,166.207 346.314,166.207 334.261,250.17 375.64,250.17 "
   id="polygon2276" />

		<polygon
   style="fill:none"
   points="322.068,166.207 254.158,166.207 254.158,250.17 310.015,250.17 "
   id="polygon2278" />

		<polygon
   style="fill:#73d0f4"
   points="404.009,107.188 80.32,107.188 87.109,142.208 397.06,142.208 "
   id="polygon2280" />

		<path
   style="fill:#3d6889"
   d="m 427.898,87.573 c -2.279,-2.776 -5.682,-4.386 -9.273,-4.386 H 75.668 L 64.289,24.474 C 63.195,18.832 58.254,14.757 52.508,14.757 H 12 c -6.629,0 -12,5.373 -12,12 0,6.627 5.371,12 12,12 h 30.609 l 51.674,270.404 c 1.01,5.738 5.994,9.922 11.818,9.922 h 42.388 c -22.757,4.122 -40.076,24.067 -40.076,47.995 0,26.902 21.887,48.79 48.79,48.79 26.902,0 48.787,-21.887 48.787,-48.79 0,-23.927 -17.316,-43.872 -40.074,-47.995 h 155.855 c -22.758,4.122 -40.078,24.067 -40.078,47.995 0,26.902 21.889,48.79 48.793,48.79 26.902,0 48.789,-21.887 48.789,-48.79 0,-23.927 -17.318,-43.872 -40.074,-47.995 h 36.541 c 6.627,0 12,-5.373 12,-12 0,-6.628 -5.373,-12 -12,-12 H 116.176 L 112.5,274.17 h 272.992 c 5.729,0 10.656,-4.047 11.772,-9.665 L 430.395,97.523 c 0.698,-3.523 -0.218,-7.174 -2.497,-9.95 z m -72.621,279.504 c 0,13.669 -11.121,24.789 -24.789,24.789 -13.67,0 -24.793,-11.12 -24.793,-24.789 0,-13.669 11.123,-24.789 24.793,-24.789 13.668,10e-4 24.789,11.12 24.789,24.789 z m -173.285,0 c 0,13.669 -11.119,24.789 -24.787,24.789 -13.67,0 -24.791,-11.12 -24.791,-24.789 0,-13.669 11.121,-24.789 24.791,-24.789 13.667,10e-4 24.787,11.12 24.787,24.789 z M 108.035,250.17 91.76,166.207 h 45.29 l 13.795,83.963 z m 122.123,0 h -54.992 l -13.795,-83.963 h 68.787 z m 79.857,0 h -55.857 v -83.963 h 67.91 z m 65.625,0 h -41.379 l 12.053,-83.963 h 45.984 z M 397.06,142.208 H 87.109 l -6.789,-35.02 h 323.689 z"
   id="path2282" />

	</g>

</g>
      <g
         id="g2288">
</g>
      <g
         id="g2290">
</g>
      <g
         id="g2292">
</g>
      <g
         id="g2294">
</g>
      <g
         id="g2296">
</g>
      <g
         id="g2298">
</g>
      <g
         id="g2300">
</g>
      <g
         id="g2302">
</g>
      <g
         id="g2304">
</g>
      <g
         id="g2306">
</g>
      <g
         id="g2308">
</g>
      <g
         id="g2310">
</g>
      <g
         id="g2312">
</g>
      <g
         id="g2314">
</g>
      <g
         id="g2316">
</g>
    </g>
  </g>
</svg>
